HIERARCHY
ROOT Hips
{
 OFFSET 0.000000 0.000000 0.000000
 CHANNELS 6 Xposition Yposition Zposition Yrotation Xrotation Zrotation
 JOINT Chest
 {
  OFFSET 0.000000 9.585900 0.002600
  CHANNELS 3 Yrotation Xrotation Zrotation
  JOINT Chest2
  {
   OFFSET 0.000000 9.601200 -0.005300
   CHANNELS 3 Yrotation Xrotation Zrotation
   JOINT Chest3
   {
    OFFSET 0.000000 9.561800 0.000000
    CHANNELS 3 Yrotation Xrotation Zrotation
    JOINT Chest4
    {
     OFFSET 0.000000 9.552100 0.000000
     CHANNELS 3 Yrotation Xrotation Zrotation
     JOINT Neck
     {
      OFFSET 0.000000 14.453000 0.000000
      CHANNELS 3 Yrotation Xrotation Zrotation
      JOINT Head
      {
       OFFSET 0.000000 8.936500 -0.011300
       CHANNELS 3 Yrotation Xrotation Zrotation
       End Site
       {
        OFFSET 0.000000 17.073600 -0.006000
       }
      }
     }
     JOINT RightCollar
     {
      OFFSET -2.921100 9.558500 0.000000
      CHANNELS 3 Yrotation Xrotation Zrotation
      JOINT RightShoulder
      {
       OFFSET -13.519700 0.000000 0.000000
       CHANNELS 3 Yrotation Xrotation Zrotation
       JOINT RightElbow
       {
        OFFSET 0.000000 -29.696600 0.000000
        CHANNELS 3 Yrotation Xrotation Zrotation
        JOINT RightWrist
        {
         OFFSET 0.000000 -24.004700 0.000000
         CHANNELS 3 Yrotation Xrotation Zrotation
         End Site
         {
          OFFSET 0.000000 -17.728500 0.000000
         }
        }
       }
      }
     }
     JOINT LeftCollar
     {
      OFFSET 2.921100 9.558500 0.000000
      CHANNELS 3 Yrotation Xrotation Zrotation
      JOINT LeftShoulder
      {
       OFFSET 13.519700 0.000000 0.000000
       CHANNELS 3 Yrotation Xrotation Zrotation
       JOINT LeftElbow
       {
        OFFSET 0.000000 -29.696600 0.000000
        CHANNELS 3 Yrotation Xrotation Zrotation
        JOINT LeftWrist
        {
         OFFSET 0.000000 -24.004700 0.000000
         CHANNELS 3 Yrotation Xrotation Zrotation
         End Site
         {
          OFFSET 0.000000 -17.728500 0.000000
         }
        }
       }
      }
     }
    }
   }
  }
 }
 JOINT RightHip
 {
  OFFSET -7.771700 -0.012900 -0.001300
  CHANNELS 3 Yrotation Xrotation Zrotation
  JOINT RightKnee
  {
   OFFSET 0.000000 -40.869800 0.001200
   CHANNELS 3 Yrotation Xrotation Zrotation
   JOINT RightAnkle
   {
    OFFSET 0.000000 -39.717900 0.002100
    CHANNELS 3 Yrotation Xrotation Zrotation
    JOINT RightToe
    {
     OFFSET 0.000000 -4.965400 11.033500
     CHANNELS 3 Yrotation Xrotation Zrotation
     End Site
     {
      OFFSET 0.000000 -1.423100 5.872300
     }
    }
   }
  }
 }
 JOINT LeftHip
 {
  OFFSET 7.771700 -0.012900 -0.001300
  CHANNELS 3 Yrotation Xrotation Zrotation
  JOINT LeftKnee
  {
   OFFSET 0.000000 -40.869800 0.001200
   CHANNELS 3 Yrotation Xrotation Zrotation
   JOINT LeftAnkle
   {
    OFFSET 0.000000 -39.717900 0.002100
    CHANNELS 3 Yrotation Xrotation Zrotation
    JOINT LeftToe
    {
     OFFSET 0.000000 -4.965400 11.033500
     CHANNELS 3 Yrotation Xrotation Zrotation
     End Site
     {
      OFFSET 0.000000 -1.423100 5.872300
     }
    }
   }
  }
 }
}
MOTION
Frames: 11
Frame Time: 0.008333
-44.497541 57.533060 19.022279 160.619324 -7.519879 0.808840 2.090693 6.713456 1.606516 0.075703 0.285588 0.034514 0.135731 0.502430 0.063449 1.759733 6.430567 0.882158 2.065421 17.609861 -1.346467 4.268251 -3.012871 -3.151100 1.730865 7.258404 0.798152 -19.547754 -14.571697 -3.720005 -128.067062 -75.567003 135.211148 -4.733213 6.518016 -28.821208 -4.772746 5.664145 -3.389833 25.863779 -17.461317 -1.486141 71.866063 -61.052363 -70.402261 2.325892 0.257882 7.943951 -13.509913 -64.677185 6.589409 -31.991121 73.297618 -32.314904 -1.907519 -7.393989 -1.870431 -0.170611 0.754065 -0.088734 3.805199 -67.066060 12.885897 40.399621 64.397548 33.442871 -17.979493 -8.533921 4.644119 -0.270705 -0.947758 -0.114399
-44.495463 57.533531 19.022478 160.618271 -7.514782 0.815846 2.087359 6.707024 1.595798 0.075713 0.285504 0.034345 0.135642 0.503644 0.063831 1.753283 6.426413 0.865848 2.079717 17.613839 -1.329919 4.268361 -3.010934 -3.155947 1.727236 7.260416 0.793892 -19.550728 -14.559598 -3.710068 -128.039039 -75.605136 135.169904 -4.751279 6.512342 -28.815850 -4.757009 5.675573 -3.373412 25.861702 -17.455124 -1.491406 71.851074 -61.046412 -70.389761 2.319441 0.249404 7.939364 -13.507722 -64.683228 6.584935 -32.002905 73.297959 -32.324122 -1.902388 -7.397930 -1.872978 -0.169559 0.754880 -0.090880 3.824809 -67.070864 12.868940 40.399930 64.401626 33.446647 -17.988441 -8.550762 4.639324 -0.270176 -0.930540 -0.113068
-44.490159 57.534049 19.022320 160.616359 -7.518669 0.807627 2.089332 6.709911 1.603420 0.075716 0.285467 0.034291 0.130230 0.500014 0.055847 1.759359 6.429578 0.872526 2.075456 17.612976 -1.337826 4.271118 -3.007404 -3.157305 1.722621 7.261440 0.789817 -19.550447 -14.550571 -3.716939 -128.025376 -75.607516 135.151483 -4.747947 6.525307 -28.831716 -4.749711 5.681285 -3.370292 25.864332 -17.413754 -1.512391 71.886448 -61.063508 -70.440218 2.322425 0.269477 7.939268 -13.534128 -64.678456 6.613382 -32.020760 73.300736 -32.339592 -1.894786 -7.391941 -1.875633 -0.180092 0.744301 -0.093171 3.797691 -67.069292 12.908345 40.395897 64.416144 33.440663 -17.986432 -8.580528 4.638778 -0.269836 -0.916563 -0.111314
-44.483205 57.535088 19.017807 160.585936 -7.550531 0.804243 2.115914 6.740414 1.605953 0.075841 0.285563 0.034153 0.133343 0.501097 0.060052 1.759652 6.428114 0.864635 2.076625 17.614254 -1.337172 4.274419 -3.002155 -3.163088 1.713356 7.261369 0.781193 -19.547314 -14.533156 -3.705973 -128.039656 -75.602331 135.166736 -4.740918 6.537601 -28.847035 -4.742675 5.686100 -3.360194 25.870466 -17.371075 -1.533023 71.879701 -61.054070 -70.438182 2.304280 0.260790 7.927546 -13.517661 -64.643712 6.622650 -32.017792 73.305245 -32.333693 -1.887088 -7.392964 -1.878965 -0.187763 0.740739 -0.096616 3.795215 -67.036256 12.942376 40.355571 64.454767 33.420009 -17.969460 -8.662016 4.644554 -0.249103 -0.875461 -0.122431
-44.478328 57.535508 19.016643 160.577574 -7.559657 0.804080 2.122520 6.746307 1.603100 0.075128 0.282736 0.028367 0.134036 0.503881 0.064909 1.759467 6.428532 0.857778 2.079392 17.615996 -1.335149 4.279094 -3.000852 -3.160430 1.714671 7.258403 0.780021 -19.556960 -14.513469 -3.703804 -128.020642 -75.610340 135.140886 -4.741294 6.539211 -28.854155 -4.737016 5.690279 -3.348441 25.883990 -17.305655 -1.563598 71.955535 -61.093586 -70.541422 2.315115 0.285982 7.942863 -13.516873 -64.633621 6.630769 -32.021944 73.308426 -32.334442 -1.889920 -7.396778 -1.886959 -0.186277 0.740860 -0.091638 3.795035 -67.026669 12.950555 40.334658 64.472047 33.408742 -17.955701 -8.711682 4.648495 -0.248856 -0.858613 -0.127163
-44.473555 57.535666 19.016527 160.572893 -7.562810 0.802042 2.126778 6.746885 1.599702 0.074576 0.282629 0.031012 0.135189 0.503973 0.061343 1.763275 6.428622 0.849654 2.080484 17.617026 -1.331800 4.282319 -3.001182 -3.154160 1.704691 7.255272 0.777298 -19.555632 -14.499537 -3.689990 -128.000695 -75.626929 135.106874 -4.740882 6.542751 -28.863220 -4.733282 5.694262 -3.332362 25.892922 -17.262663 -1.578608 71.985157 -61.098107 -70.580825 2.314240 0.303070 7.984439 -13.528628 -64.625213 6.652725 -32.025462 73.305203 -32.338759 -1.896913 -7.408069 -1.896176 -0.179234 0.749004 -0.085930 3.774390 -67.023008 12.976678 40.330357 64.484731 33.403911 -17.957281 -8.752550 4.656347 -0.259354 -0.851892 -0.134017
-44.470320 57.535540 19.017306 160.572092 -7.558100 0.805512 2.123983 6.739101 1.591564 0.076363 0.285352 0.032935 0.134721 0.500032 0.058300 1.768180 6.428465 0.844746 2.082381 17.617512 -1.329850 4.284667 -2.998133 -3.149641 1.697958 7.253968 0.781812 -19.555134 -14.483530 -3.694296 -127.976173 -75.631284 135.067935 -4.744370 6.533331 -28.853052 -4.730260 5.701317 -3.325314 25.904393 -17.234214 -1.585045 71.992906 -61.094646 -70.595891 2.311736 0.297796 7.997771 -13.528419 -64.630671 6.654130 -32.028540 73.306519 -32.341072 -1.890568 -7.410010 -1.897988 -0.185885 0.749355 -0.087660 3.777777 -67.026274 12.973079 40.330294 64.487749 33.402837 -17.955501 -8.783812 4.667704 -0.260107 -0.851752 -0.139384
-44.468101 57.535588 19.015684 160.556116 -7.565263 0.819799 2.137536 6.747619 1.578597 0.075196 0.286333 0.031496 0.134970 0.499896 0.058138 1.772354 6.425874 0.839562 2.083493 17.618175 -1.328556 4.287723 -2.998340 -3.147077 1.689420 7.246415 0.783013 -19.550202 -14.457103 -3.702809 -127.950612 -75.622219 135.033172 -4.740382 6.523036 -28.849752 -4.730738 5.703313 -3.317621 25.913098 -17.219210 -1.589239 71.978333 -61.077159 -70.549659 2.305006 0.284269 7.979495 -13.490090 -64.628106 6.627611 -32.023888 73.311053 -32.331931 -1.895710 -7.411618 -1.904609 -0.183903 0.749247 -0.087258 3.794590 -67.012442 12.962871 40.344032 64.493817 33.407006 -17.931949 -8.815922 4.679349 -0.273936 -0.858149 -0.143549
-44.464445 57.535398 19.015652 160.543553 -7.567041 0.820177 2.149047 6.751618 1.579389 0.074476 0.285322 0.028709 0.134857 0.500675 0.057750 1.774915 6.426250 0.840495 2.085476 17.617032 -1.328715 4.288768 -2.999218 -3.147569 1.686707 7.236879 0.778395 -19.550774 -14.443387 -3.696459 -127.938389 -75.620701 135.007853 -4.743250 6.527786 -28.854894 -4.724928 5.700752 -3.309848 25.920194 -17.201582 -1.597437 71.985304 -61.073353 -70.553674 2.306981 0.278845 7.985835 -13.486132 -64.626277 6.634745 -31.997098 73.319166 -32.299313 -1.899235 -7.414831 -1.921997 -0.182350 0.749489 -0.080093 3.778565 -67.009839 12.986490 40.357283 64.500159 33.413555 -17.910913 -8.831348 4.688572 -0.312020 -0.875784 -0.150205
-44.462330 57.534981 19.016707 160.540796 -7.560814 0.823438 2.148529 6.745847 1.571540 0.077590 0.284630 0.029743 0.135336 0.500512 0.057607 1.777258 6.424372 0.838098 2.086620 17.617904 -1.327820 4.287224 -2.997031 -3.143043 1.688056 7.232466 0.779945 -19.555076 -14.433692 -3.687228 -127.942603 -75.625099 135.001431 -4.743696 6.531837 -28.856958 -4.716560 5.704623 -3.295615 25.959291 -17.148845 -1.622129 72.018875 -61.088665 -70.639452 2.308834 0.275781 7.990487 -13.487271 -64.631626 6.639806 -31.996763 73.317277 -32.296237 -1.899889 -7.419023 -1.933157 -0.179376 0.753292 -0.076134 3.766101 -67.014580 12.997770 40.360956 64.499995 33.417327 -17.935510 -8.834997 4.692692 -0.304276 -0.891272 -0.153446
-44.459523 57.534519 19.017970 160.534679 -7.556261 0.820526 2.154951 6.741264 1.572191 0.079124 0.283608 0.030494 0.136680 0.500442 0.056627 1.790289 6.421007 0.831821 2.083490 17.620278 -1.324173 4.278573 -2.995582 -3.132505 1.676896 7.229421 0.788380 -19.559379 -14.425622 -3.678058 -127.949537 -75.623963 135.008539 -4.755566 6.539839 -28.895165 -4.717434 5.710948 -3.278121 25.990181 -17.114749 -1.643775 72.022732 -61.084050 -70.668107 2.315397 0.265747 7.987302 -13.496392 -64.633507 6.659169 -31.998202 73.313859 -32.294961 -1.903631 -7.422524 -1.942722 -0.180232 0.756737 -0.073923 3.755659 -67.018953 13.013204 40.370342 64.492985 33.432157 -17.958549 -8.831123 4.688330 -0.287875 -0.905148 -0.150571
